<?xml version="1.0" encoding="UTF-8" standalone="no"?>
<!-- Generator: Adobe Illustrator 24.0.0, SVG Export Plug-In . SVG Version: 6.00 Build 0)  -->

<svg
   xmlns:dc="http://purl.org/dc/elements/1.1/"
   xmlns:cc="http://creativecommons.org/ns#"
   xmlns:rdf="http://www.w3.org/1999/02/22-rdf-syntax-ns#"
   xmlns:svg="http://www.w3.org/2000/svg"
   xmlns="http://www.w3.org/2000/svg"
   xmlns:sodipodi="http://sodipodi.sourceforge.net/DTD/sodipodi-0.dtd"
   xmlns:inkscape="http://www.inkscape.org/namespaces/inkscape"
   version="1.1"
   id="_x31_2"
   x="0px"
   y="0px"
   width="468"
   height="284"
   viewBox="0 0 467.99999 284.00001"
   xml:space="preserve"
   inkscape:version="0.91 r13725"
   sodipodi:docname="Coding Club Linz Logotype without Whitespace.svg"><metadata
     id="metadata4212"><rdf:RDF><cc:Work
         rdf:about=""><dc:format>image/svg+xml</dc:format><dc:type
           rdf:resource="http://purl.org/dc/dcmitype/StillImage" /><dc:title></dc:title></cc:Work></rdf:RDF></metadata><defs
     id="defs4210" /><sodipodi:namedview
     pagecolor="#ffffff"
     bordercolor="#666666"
     borderopacity="1"
     objecttolerance="10"
     gridtolerance="10"
     guidetolerance="10"
     inkscape:pageopacity="0"
     inkscape:pageshadow="2"
     inkscape:window-width="1920"
     inkscape:window-height="1137"
     id="namedview4208"
     showgrid="false"
     inkscape:zoom="1.5857551"
     inkscape:cx="373.37677"
     inkscape:cy="90.613669"
     inkscape:window-x="1912"
     inkscape:window-y="-8"
     inkscape:window-maximized="1"
     inkscape:current-layer="_x31_2" /><style
     type="text/css"
     id="style4160">
	.st0{fill:#F28131;}
	.st1{fill:#F6B632;}
	.st2{fill:#63B64D;}
	.st3{fill:#954195;}
	.st4{fill:#E23E3D;}
	.st5{fill:#189AD3;}
</style><g
     id="g4162"
     transform="translate(-187.1,-141.075)"><path
       class="st0"
       d="m 453,343.6 c 33.2,33.2 87.1,33.2 120.3,0 l -20,-20 c -22.1,22.1 -58,22.1 -80.2,0 l -20.1,20 z"
       id="path4164"
       inkscape:connector-curvature="0"
       style="fill:#f28131" /><path
       class="st1"
       d="m 473,323.6 c -22.1,-22.1 -22.1,-58 0,-80.2 l -20,-20 c -33.2,33.2 -33.2,87.1 0,120.3 l 20,-20.1 z"
       id="path4166"
       inkscape:connector-curvature="0"
       style="fill:#f6b632" /><path
       class="st2"
       d="m 473,243.4 c 22.1,-22.1 58,-22.1 80.2,0 l 20,-20 c -33.2,-33.2 -87.1,-33.2 -120.3,0 l 20.1,20 z"
       id="path4168"
       inkscape:connector-curvature="0"
       style="fill:#63b64d" /><path
       class="st3"
       d="m 613.3,383.7 c 55.3,-55.3 55.3,-145.1 0,-200.4 l -20,20 c 44.3,44.3 44.3,116.1 0,160.4 l 20,20 z"
       id="path4170"
       inkscape:connector-curvature="0"
       style="fill:#954195" /><path
       class="st4"
       d="m 593.3,363.6 c -44.3,44.3 -116.1,44.3 -160.4,0 l -20,20 c 55.3,55.3 145.1,55.3 200.4,0 l -20,-20 z"
       id="path4172"
       inkscape:connector-curvature="0"
       style="fill:#e23e3d" /><path
       class="st5"
       d="m 613.3,183.2 c -55.3,-55.3 -145.1,-55.3 -200.4,0 l 20,20 c 44.3,-44.3 116.1,-44.3 160.4,0 l 20,-20 z"
       id="path4174"
       inkscape:connector-curvature="0"
       style="fill:#189ad3" /><path
       class="st1"
       d="m 533.1,262.6 c -5.1,-5.1 -12.2,-8.3 -20,-8.3 -15.7,0 -28.3,12.7 -28.3,28.3 0,15.7 12.7,28.3 28.3,28.3 7.8,0 14.9,-3.2 20,-8.3 l -20,-20 20,-20 z"
       id="path4176"
       inkscape:connector-curvature="0"
       style="fill:#f6b632" /><g
       id="g4178" style="fill:#ffffff"><path
         d="m 187.1,226.7 c 0,-11.5 8.3,-19.3 18.8,-19.3 6,0 10.5,2.6 13.7,6.6 l -2.7,1.7 c -2.4,-3.2 -6.4,-5.4 -11,-5.4 -8.7,0 -15.5,6.7 -15.5,16.4 0,9.6 6.8,16.4 15.5,16.4 4.6,0 8.7,-2.2 11,-5.4 l 2.7,1.7 c -3.3,4.1 -7.7,6.7 -13.7,6.7 -10.5,-0.1 -18.8,-7.9 -18.8,-19.4 z"
         id="path4180"
         inkscape:connector-curvature="0" /><path
         d="m 242.8,207.4 c 10.9,0 18.1,8.4 18.1,19.3 0,10.9 -7.2,19.3 -18.1,19.3 -11,0 -18.1,-8.4 -18.1,-19.3 0,-10.9 7.2,-19.3 18.1,-19.3 z m 0,2.9 c -9.1,0 -14.8,6.9 -14.8,16.4 0,9.4 5.7,16.4 14.8,16.4 9,0 14.8,-7 14.8,-16.4 0,-9.5 -5.8,-16.4 -14.8,-16.4 z"
         id="path4182"
         inkscape:connector-curvature="0" /><path
         d="m 268.9,208 11.9,0 c 11.6,0 18.9,8.5 18.9,18.7 0,10.4 -7.3,18.6 -18.9,18.6 l -11.9,0 0,-37.3 z m 11.9,34.4 c 9.9,0 15.5,-7 15.5,-15.7 0,-8.7 -5.6,-15.8 -15.5,-15.8 l -8.7,0 0,31.5 8.7,0 z"
         id="path4184"
         inkscape:connector-curvature="0" /><path
         d="m 307.6,208 3.2,0 0,37.4 -3.2,0 0,-37.4 z"
         id="path4186"
         inkscape:connector-curvature="0" /><path
         d="m 323.3,213.1 0,32.3 -3.2,0 0,-37.4 3.2,0 23.4,31.8 0,-31.8 3.2,0 0,37.4 -3.1,0 -23.5,-32.3 z"
         id="path4188"
         inkscape:connector-curvature="0" /><path
         d="m 376.8,207.4 c 6.2,0 10.6,2.5 14.1,6.4 l -2.4,1.7 c -2.6,-3.1 -6.9,-5.2 -11.6,-5.2 -8.8,0 -15.6,6.7 -15.6,16.4 0,9.6 6.8,16.5 15.6,16.5 5,0 8.9,-2.5 11,-4.5 l 0,-8.9 -14.2,0 0,-2.9 17.3,0 0,13 c -3.4,3.7 -8.3,6.2 -14.2,6.2 -10.5,0 -18.9,-7.8 -18.9,-19.4 0,-11.5 8.4,-19.3 18.9,-19.3 z"
         id="path4190"
         inkscape:connector-curvature="0" /><path
         d="m 258.6,282.7 c 0,-11.5 8.5,-19.3 19,-19.3 6.8,0 11.4,3.2 14.3,7.4 L 288,273 c -2.1,-3.1 -6,-5.4 -10.4,-5.4 -8,0 -14.2,6.3 -14.2,15.2 0,8.8 6.2,15.2 14.2,15.2 4.4,0 8.3,-2.2 10.4,-5.4 l 4,2.2 c -3.1,4.3 -7.6,7.4 -14.4,7.4 -10.5,-0.2 -19,-8 -19,-19.5 z"
         id="path4192"
         inkscape:connector-curvature="0" /><path
         d="m 298,264 4.6,0 0,33.2 17.4,0 0,4.1 -22,0 0,-37.3 z"
         id="path4194"
         inkscape:connector-curvature="0" /><path
         d="m 325,264 4.6,0 0,22.7 c 0,6.8 3.7,11.1 10.6,11.1 6.9,0 10.6,-4.3 10.6,-11.1 l 0,-22.7 4.6,0 0,22.8 c 0,9.3 -5.1,15.2 -15.2,15.2 -10.1,0 -15.2,-6 -15.2,-15.2 l 0,-22.8 z"
         id="path4196"
         inkscape:connector-curvature="0" /><path
         d="m 364.2,264 16.6,0 c 6.5,0 10.5,3.9 10.5,9.5 0,4.7 -3.1,7.8 -6.6,8.6 4,0.6 7.3,4.7 7.3,9.2 0,6 -4,10.1 -10.8,10.1 l -17,0 0,-37.4 z m 15.9,16.2 c 4.2,0 6.4,-2.6 6.4,-6 0,-3.4 -2.2,-6 -6.4,-6 l -11.2,0 0,12 11.2,0 z m 0.2,17 c 4.4,0 6.9,-2.5 6.9,-6.4 0,-3.4 -2.4,-6.4 -6.9,-6.4 l -11.4,0 0,12.9 11.4,0 z"
         id="path4198"
         inkscape:connector-curvature="0" /><path
         d="m 279.5,320 8,0 0,30.4 15.8,0 0,7 -23.7,0 0,-37.4 z"
         id="path4200"
         inkscape:connector-curvature="0" /><path
         d="m 308.8,320 8,0 0,37.4 -8,0 0,-37.4 z"
         id="path4202"
         inkscape:connector-curvature="0" /><path
         d="m 332.1,332.3 0,25.1 -8,0 0,-37.4 8.2,0 17.3,24.2 0,-24.2 8,0 0,37.4 -7.7,0 -17.8,-25.1 z"
         id="path4204"
         inkscape:connector-curvature="0" /><path
         d="m 363.6,350.9 17.6,-23.9 -17.6,0 0,-7 28.1,0 0,6.4 -17.6,24 18,0 0,7 -28.4,0 0,-6.5 z"
         id="path4206"
         inkscape:connector-curvature="0" /></g></g></svg>