<?xml version="1.0" encoding="utf-8"?>
<!-- Generator: Adobe Illustrator 20.1.0, SVG Export Plug-In . SVG Version: 6.00 Build 0)  -->
<svg version="1.1" id="Ebene_1" xmlns="http://www.w3.org/2000/svg" xmlns:xlink="http://www.w3.org/1999/xlink" x="0px" y="0px"
	 viewBox="0 0 321.4 31" style="enable-background:new 0 0 321.4 31;" xml:space="preserve">
<style type="text/css">
	.st0{clip-path:url(#SVGID_2_);fill:#B1B1B1;}
	.st1{clip-path:url(#SVGID_2_);fill:#1D1D1B;}
</style>
<g>
	<defs>
		<rect id="SVGID_1_" y="0" width="321.4" height="31"/>
	</defs>
	<clipPath id="SVGID_2_">
		<use xlink:href="#SVGID_1_"  style="overflow:visible;"/>
	</clipPath>
	<path class="st0" d="M57.9,1.5v8.8c0,1-0.4,1.4-1.4,1.4H22.6c-1,0-1.4-0.4-1.4-1.4V1.5c0-1.1,0.4-1.5,1.4-1.5h33.8
		C57.5,0,57.9,0.4,57.9,1.5"/>
	<path class="st0" d="M36.2,18.6V29c0,1-0.4,1.4-1.4,1.4H22.6c-1,0-1.4-0.4-1.4-1.4V18.6c0-1.1,0.4-1.5,1.4-1.5h12.2
		C35.8,17.1,36.2,17.5,36.2,18.6"/>
	<path class="st0" d="M57.9,18.6V29c0,1-0.4,1.4-1.4,1.4H44.3c-1,0-1.4-0.4-1.4-1.4V18.6c0-1.1,0.4-1.5,1.4-1.5h12.2
		C57.5,17.1,57.9,17.5,57.9,18.6"/>
	<path class="st0" d="M15,1.5v8.8c0,1-0.4,1.4-1.4,1.4H1.4c-1,0-1.4-0.4-1.4-1.4V1.5C0,0.4,0.4,0,1.4,0h12.2C14.6,0,15,0.4,15,1.5"
		/>
	<path class="st0" d="M15,18.6V29c0,1-0.4,1.4-1.4,1.4H1.4C0.4,30.4,0,30,0,29V18.6c0-1.1,0.4-1.5,1.4-1.5h12.2
		C14.6,17.1,15,17.5,15,18.6"/>
	<path class="st1" d="M89.6,0.6H92c1,0,1.4,0.4,1.4,1.4V29c0,1-0.4,1.4-1.4,1.4h-2.4c-1.1,0-1.5-0.4-1.5-1.4V2.1
		C88.1,1,88.5,0.6,89.6,0.6"/>
	<path class="st1" d="M130.9,2.1V29c0,1-0.3,1.4-1.4,1.4h-2.4c-0.7,0-1-0.2-1.4-0.7l-10.3-15.2c-2-2.9-3.3-6.8-3.4-7h-0.3
		c0,0.3,0.9,4.4,0.9,8.3V29c0,1-0.4,1.4-1.4,1.4H109c-1.1,0-1.5-0.4-1.5-1.4V2.1c0-1,0.4-1.4,1.5-1.4h2.4c0.8,0,1.1,0.3,1.4,0.7
		L123,16.4c2.1,3.2,3.3,6.8,3.5,7.1h0.3c0-0.4-0.9-4.2-0.9-8.5v-13c0-1,0.4-1.4,1.4-1.4h2.2C130.6,0.6,130.9,1,130.9,2.1"/>
	<path class="st1" d="M155.5,0c6,0,9,2.2,11,6.3c0.5,1,0.2,1.5-0.8,1.9l-2.3,1c-0.9,0.4-1.3,0.3-1.8-0.7c-1.1-2.2-2.8-3.5-6.1-3.5
		c-4.1,0-6.1,1.3-6.1,3.9c0,3,3.4,3.6,7.2,4c4.9,0.5,10.6,1.8,10.6,8.8c0,5.6-4.2,9.4-11.9,9.4c-6.5,0-9.8-2.5-11.5-7
		c-0.4-1-0.1-1.5,0.9-1.8l2.3-0.8c1-0.3,1.4-0.1,1.8,0.9c1,2.5,3.3,3.9,6.5,3.9c4.3,0,6.7-1.3,6.7-4.4c0-2.9-3.1-3.5-6.6-3.9
		c-5.1-0.5-11.4-1.3-11.4-8.7C144,3.9,147.9,0,155.5,0"/>
	<path class="st1" d="M181.5,0.6h2.4c1,0,1.4,0.4,1.4,1.4V29c0,1-0.4,1.4-1.4,1.4h-2.4c-1.1,0-1.5-0.4-1.5-1.4V2.1
		C180,1,180.4,0.6,181.5,0.6"/>
	<path class="st1" d="M219.7,2.1v2.1c0,1-0.4,1.4-1.4,1.4H211V29c0,1-0.4,1.4-1.4,1.4h-2.4c-1,0-1.4-0.4-1.4-1.4V5.5h-7.2
		c-1.1,0-1.4-0.4-1.4-1.4V2.1c0-1,0.3-1.4,1.4-1.4h19.7C219.3,0.6,219.7,1,219.7,2.1"/>
	<path class="st1" d="M251.1,2.1v2.1c0,1-0.4,1.4-1.5,1.4h-12.8v7.3h10.9c1,0,1.4,0.4,1.4,1.4v2.1c0,1-0.4,1.4-1.4,1.4h-10.9v7.7
		h13.3c1.1,0,1.4,0.4,1.4,1.4V29c0,1-0.3,1.4-1.4,1.4H233c-1.1,0-1.5-0.4-1.5-1.4V2.1c0-1,0.4-1.4,1.5-1.4h16.6
		C250.7,0.6,251.1,1,251.1,2.1"/>
	<path class="st1" d="M283.2,0.6h2.4c1,0,1.4,0.4,1.4,1.4V29c0,1-0.4,1.4-1.4,1.4h-2.4c-1.1,0-1.5-0.4-1.5-1.4V2.1
		C281.7,1,282.1,0.6,283.2,0.6"/>
	<path class="st1" d="M321.4,2.1v2.1c0,1-0.4,1.4-1.4,1.4h-7.2V29c0,1-0.4,1.4-1.4,1.4h-2.4c-1,0-1.4-0.4-1.4-1.4V5.5h-7.2
		c-1.1,0-1.4-0.4-1.4-1.4V2.1c0-1,0.3-1.4,1.4-1.4H320C321,0.6,321.4,1,321.4,2.1"/>
</g>
</svg>
