<svg xmlns="http://www.w3.org/2000/svg" class="branding__logo svg-logo-de-dims" viewBox="0 0 153 70.3"><g fill="#1d1d1b"><path d="M 5 58.2 c 2.9 0 3.6 2.4 3.6 5.2 c 0 2.8 -0.7 5.2 -3.6 5.2 c -2.9 0 -3.6 -2.4 -3.6 -5.2 c 0 -2.8 0.7 -5.2 3.6 -5.2 m 1.9 5.2 c 0 -2.2 -0.3 -4 -2 -4 c -1.6 0 -1.9 1.9 -1.9 4 c 0 2.2 0.3 4 1.9 4 c 1.7 0 2 -1.8 2 -4 Z M 10.7 59.7 H 9.2 v -1.2 h 1.4 v -1.2 c 0 -1.5 0.6 -2.3 2.2 -2.3 h 1.1 v 1.3 h -0.7 c -0.7 0 -1 0.3 -1 0.9 v 1.2 h 1.7 v 1.2 h -1.7 v 8.7 h -1.6 v -8.6 M 16.1 59.7 h -1.4 v -1.2 h 1.4 v -1.2 c 0 -1.5 0.6 -2.3 2.1 -2.3 h 1.1 v 1.3 h -0.7 c -0.7 0 -1 0.3 -1 0.9 v 1.2 h 1.7 v 1.2 h -1.7 v 8.7 H 16 v -8.6 M 21.7 63.6 c 0 1.5 0 3.8 1.9 3.8 c 1.5 0 1.7 -1.6 1.7 -2.3 h 1.6 c 0 1.1 -0.6 3.5 -3.3 3.5 c -2.4 0 -3.4 -1.7 -3.4 -5.1 c 0 -2.5 0.5 -5.4 3.5 -5.4 s 3.3 2.7 3.3 4.8 v 0.6 h -5.3 m 3.6 -1.1 v -0.5 c 0 -1.1 -0.4 -2.4 -1.7 -2.4 c -1.6 0 -1.8 2 -1.8 2.6 v 0.4 h 3.5 Z M 28.6 58.4 h 1.5 v 1.2 c 0.4 -0.9 1.4 -1.4 2.4 -1.4 c 2.6 0 2.6 2 2.6 3.2 v 7 h -1.6 v -6.9 c 0 -0.8 -0.1 -2 -1.5 -2 c -0.8 0 -2 0.6 -2 2 v 6.9 h -1.6 v -10 M 37.5 66.4 h 1.7 v 2 h -1.7 Z M 46.8 59.7 h -1.4 v -1.2 h 1.4 v -1.2 c 0 -1.5 0.6 -2.3 2.1 -2.3 H 50 v 1.3 h -0.7 c -0.7 0 -1 0.3 -1 0.9 v 1.2 H 50 v 1.2 h -1.7 v 8.7 h -1.6 v -8.6 M 51.4 55.1 H 53 v 13.2 h -1.6 Z M 56.3 63.6 c 0 1.5 0 3.8 1.9 3.8 c 1.5 0 1.7 -1.6 1.7 -2.3 h 1.6 c 0 1.1 -0.6 3.5 -3.3 3.5 c -2.4 0 -3.4 -1.7 -3.4 -5.1 c 0 -2.5 0.5 -5.4 3.5 -5.4 s 3.3 2.7 3.3 4.8 v 0.6 h -5.3 m 3.6 -1.1 v -0.5 c 0 -1.1 -0.4 -2.4 -1.7 -2.4 c -1.6 0 -1.8 2 -1.8 2.6 v 0.4 h 3.5 Z M 62.3 58.4 H 64 l 1.8 3.6 l 1.8 -3.6 h 1.7 l -2.6 4.8 l 2.7 5.2 h -1.7 l -2 -4 l -1.9 4 h -1.7 l 2.7 -5.2 l -2.5 -4.8 M 70.7 55.1 h 1.6 v 1.8 h -1.6 v -1.8 Z m 0 3.3 h 1.6 v 9.9 h -1.6 v -9.9 Z M 74.3 55.1 h 1.6 v 4.4 c 0.4 -0.9 1.3 -1.4 2.3 -1.4 c 2.7 0 3 3.2 3 5.2 c 0 2.8 -0.9 5.2 -3.2 5.2 c -1.1 0 -1.9 -0.7 -2.2 -1.5 v 1.2 h -1.5 V 55.1 m 3.4 12.2 c 1.4 0 1.8 -1.6 1.8 -3.9 c 0 -2.4 -0.4 -3.9 -1.8 -3.9 c -1.7 0 -2 2 -2 3.9 c 0 2 0.4 3.9 2 3.9 Z M 84.2 63.6 c 0 1.5 0 3.8 1.9 3.8 c 1.5 0 1.7 -1.6 1.7 -2.3 h 1.6 c 0 1.1 -0.6 3.5 -3.3 3.5 c -2.4 0 -3.4 -1.7 -3.4 -5.1 c 0 -2.5 0.5 -5.4 3.5 -5.4 s 3.3 2.7 3.3 4.8 v 0.6 h -5.3 m 3.6 -1.1 v -0.5 c 0 -1.1 -0.4 -2.4 -1.7 -2.4 c -1.6 0 -1.8 2 -1.8 2.6 v 0.4 h 3.5 Z M 91.1 55.1 h 1.6 v 13.2 h -1.6 Z M 95 66.4 h 1.7 v 2 H 95 Z M 103.7 61.4 c 0 -2.3 1 -3.3 3.3 -3.3 c 3 0 3 1.8 3 2.9 v 5.5 c 0 0.4 0 0.8 0.5 0.8 c 0.2 0 0.3 0 0.4 -0.1 v 1.1 c -0.1 0 -0.5 0.1 -0.9 0.1 c -0.6 0 -1.3 0 -1.4 -1.3 c -0.5 0.9 -1.5 1.4 -2.4 1.4 c -1.9 0 -2.7 -1.1 -2.7 -2.9 c 0 -1.4 0.6 -2.4 1.9 -2.7 l 2.1 -0.6 c 1.1 -0.3 1.1 -0.7 1.1 -1.5 c 0 -0.9 -0.6 -1.5 -1.6 -1.5 c -1.7 0 -1.7 1.6 -1.7 1.9 v 0.1 h -1.6 m 4.8 1.7 c -0.6 0.6 -1.9 0.7 -2.7 1.2 c -0.5 0.3 -0.8 0.7 -0.8 1.6 c 0 1 0.4 1.7 1.4 1.7 c 1 0 2 -0.9 2 -1.9 V 63 Z M 112.2 58.4 h 1.5 v 1.2 c 0.4 -0.9 1.4 -1.4 2.4 -1.4 c 2.6 0 2.6 2 2.6 3.2 v 7 h -1.6 v -6.9 c 0 -0.8 -0.1 -2 -1.5 -2 c -0.8 0 -2 0.6 -2 2 v 6.9 H 112 v -10 M 127.3 68.4 h -1.5 v -1.2 c -0.2 0.7 -1.1 1.5 -2.1 1.5 c -2.4 0 -3.2 -2.1 -3.2 -5.2 c 0 -2.1 0.3 -5.2 3.1 -5.2 c 0.9 0 1.8 0.5 2.2 1.4 v -4.4 h 1.6 v 13.1 m -3.5 -1.1 c 1.7 0 2 -1.6 2 -3.9 c 0 -1.9 -0.3 -3.9 -2 -3.9 c -1.4 0 -1.8 1.5 -1.8 3.9 s 0.3 3.9 1.8 3.9 Z M 130.7 63.6 c 0 1.5 0 3.8 1.9 3.8 c 1.5 0 1.7 -1.6 1.7 -2.3 h 1.6 c 0 1.1 -0.6 3.5 -3.3 3.5 c -2.4 0 -3.4 -1.7 -3.4 -5.1 c 0 -2.5 0.5 -5.4 3.5 -5.4 s 3.3 2.7 3.3 4.8 v 0.6 h -5.3 m 3.6 -1.1 v -0.5 c 0 -1.1 -0.4 -2.4 -1.7 -2.4 c -1.6 0 -1.8 2 -1.8 2.6 v 0.4 h 3.5 Z M 137.6 58.4 h 1.6 v 1.5 c 0.4 -0.9 1 -1.7 2.2 -1.7 c 0.3 0 0.5 0 0.7 0.1 v 1.5 c -0.1 0 -0.3 -0.1 -0.8 -0.1 c -0.8 0 -2 0.7 -2 2.4 v 6.3 h -1.6 v -10 M 147.6 61.3 c 0 -1.3 -0.3 -1.9 -1.5 -1.9 c -0.5 0 -1.6 0.1 -1.6 1.5 c 0 1.2 1.2 1.4 2.4 1.8 c 1.2 0.4 2.4 0.8 2.4 2.8 c 0 2.1 -1.4 3.1 -3.2 3.1 c -3.4 0 -3.4 -2.5 -3.4 -3.5 h 1.6 c 0 1.2 0.3 2.3 1.9 2.3 c 0.5 0 1.6 -0.2 1.6 -1.6 c 0 -1.3 -1.2 -1.6 -2.4 -2 c -1.2 -0.4 -2.4 -0.8 -2.4 -2.8 c 0 -1.9 1.4 -2.7 3.2 -2.7 c 2.9 0 3 2 3 3.2 h -1.6 M 151.3 66.4 h 1.7 v 2 h -1.7 Z" /></g><path fill="#cc1719" d="M 84 0.1 h 8.1 v 8.1 H 84 Z" /><path fill="#6f6f6e" d="M 12.4 11.1 c 9.7 -0.2 12.4 5.6 12.4 16.5 c 0 10.7 -3.2 16.5 -12.4 16.5 C 2.7 44.3 0 38.5 0 27.6 c 0 -10.8 3.1 -16.5 12.4 -16.5 Z m 0 27.5 c 3.3 0 4.3 -3.2 4.3 -11 s -1.1 -11 -4.3 -11 c -4 0 -4.3 4.6 -4.3 11 c -0.1 6.4 0.3 11 4.3 11 Z m 31.1 -26.7 h 8.4 l -8.2 15.2 l 8.5 16.2 h -8.4 L 39.2 33 l -4.7 10.3 h -8.4 l 8.5 -16.2 l -8.2 -15.2 h 8.4 l 4.3 9.5 l 4.4 -9.5 Z m 11.8 9.6 v -0.8 c 0 -7.2 5 -9.7 11 -9.7 c 9.6 0 11.4 4 11.4 9.6 v 16.5 c 0 2.9 0.2 4.3 1 6.1 H 71 c -0.5 -1 -0.8 -2.2 -1 -3.3 h -0.1 c -1.9 3.3 -4.1 4.1 -8 4.1 c -5.6 0 -7.6 -4.8 -7.6 -9 c 0 -5.9 2.4 -8.3 7.9 -9.8 l 4.6 -1.2 c 2.4 -0.6 3.2 -1.6 3.2 -3.7 c 0 -2.4 -1.1 -3.9 -3.7 -3.9 c -2.5 0 -3.7 1.6 -3.7 4.1 v 0.9 h -7.3 Z M 70 27.6 c -1.1 0.8 -2.5 1.3 -3.4 1.6 c -3.3 0.7 -4.6 2.3 -4.6 5.1 c 0 2.4 0.9 4.4 3 4.4 c 2.2 0 5 -1.4 5 -4.8 v -6.3 Z m 14 15.7 h 8.1 V 11.9 H 84 v 31.4 Z m 25.4 -32.2 c 9.7 -0.2 12.4 5.6 12.4 16.5 c 0 10.7 -3.2 16.5 -12.4 16.5 c -9.7 0.2 -12.4 -5.6 -12.4 -16.5 c 0 -10.8 3.2 -16.5 12.4 -16.5 Z m 0 27.5 c 3.3 0 4.3 -3.2 4.3 -11 s -1.1 -11 -4.3 -11 c -4 0 -4.3 4.6 -4.3 11 s 0.3 11 4.3 11 Z m 16.7 -26.7 h 7.7 v 3.7 h 0.1 c 1.7 -3.1 4.6 -4.5 8 -4.5 c 5 0 8 2.7 8 8.9 v 23.3 h -8.1 V 21.6 c 0 -3.2 -1.1 -4.4 -3.4 -4.4 c -2.7 0 -4.3 1.7 -4.3 5.2 v 20.8 H 126 V 11.9 Z" /></svg>