<?xml version="1.0" encoding="utf-8"?>
<!-- Generator: Adobe Illustrator 23.0.1, SVG Export Plug-In . SVG Version: 6.00 Build 0)  -->
<svg version="1.1" id="Ebene_1" xmlns="http://www.w3.org/2000/svg" xmlns:xlink="http://www.w3.org/1999/xlink" x="0px" y="0px"
	 width="5400px" height="1800px" viewBox="0 0 5400 1800" style="enable-background:new 0 0 5400 1800;" xml:space="preserve">
<style type="text/css">
	.st0{fill-rule:evenodd;clip-rule:evenodd;}
	.st1{fill-rule:evenodd;clip-rule:evenodd;fill:#FEFEFE;}
	.st2{fill-rule:evenodd;clip-rule:evenodd;fill:#FFFFFF;}
	.st3{fill:#E13B3D;}
	.st4{fill:#F28130;}
	.st5{fill:#129AD4;}
	.st6{fill:#953E93;}
	.st7{fill:#F8B732;}
	.st8{fill:#62B84D;}
</style>
<g id="Layer_x0020_1_1_">
	<path id="path10_1_" class="st0" d="M1603.3,982.9v74.3c-0.7,22.1-5.1,42-13.3,58.9c-6.6,14.7-17,28.7-31.7,39.8
		c-14.7,11.7-34.6,18.4-61.1,18.4c-26.5,0-47.1-6.7-61.8-18.4c-14.7-11-24.3-25-30.9-39.8c-8.1-16.9-12.5-36.8-13.3-58.9V738.4
		c0.8-21.4,5.1-41.2,13.3-58.1c6.6-14.7,16.2-29.5,30.9-40.5c14.7-11,35.3-18.4,61.8-18.4c26.5,0,46.4,7.4,61.1,18.4
		c14.7,11.1,25,25.8,31.7,40.5c8.1,17,12.5,36.8,13.3,58.1v74.3H1529v-74.3c0-14.7-3.7-25-11.8-33.9c-3.7-3.7-10.3-5.9-18.4-5.9
		c-14,0-20.6,10.3-24.3,19.9c-2.2,5.9-2.9,12.5-3.7,19.9v318.8c0.8,15.4,5.2,25.8,12.5,33.8c3.7,3.7,8.8,5.9,15.4,5.9
		c17,0,23.6-8.8,27.2-19.9c2.2-5.1,2.9-11.8,2.9-19.9v-74.3L1603.3,982.9L1603.3,982.9z M1835,1070.5c-2.2,39-13.9,66.2-39.7,87.6
		c-13.3,11.1-31.7,16.2-55.9,16.2c-47.9,0-71.4-26.5-83.2-53c-6.6-15.4-11-33.1-11.7-53V865.8c2.2-39,13.9-67.7,39.7-89.8
		c12.5-11.1,30.9-16.2,55.2-16.2c47.8,0,72.1,26.5,83.9,52.3c6.6,15.5,11,32.4,11.7,51.6L1835,1070.5L1835,1070.5L1835,1070.5z
		 M1765.1,865.8c0.8-15.4-2.2-26.5-9.6-35.3c-3.7-3.7-9.6-5.9-16.2-5.9c-14,0-19.9,9.6-22.8,20.6c-2.2,5.9-2.9,12.5-2.2,20.6v202.5
		c-0.7,15.4,3,26.5,9.6,34.6c3.7,3.7,8.8,5.9,15.5,5.9c13.9,0,20.6-8.8,23.5-19.9c2.2-5.9,3-12.5,2.2-20.6L1765.1,865.8
		L1765.1,865.8L1765.1,865.8z M2074.5,1168.3h-74.3v-26.5c-12.5,11.8-23.5,20.6-37.5,27.3c-7.4,3.7-14.7,5.1-21.4,5.1
		c-20.6,0-34.6-11.8-43.4-27.3c-9.6-14.7-13.9-34.6-13.9-51.5V838.5c0-16.9,4.4-36.8,13.9-52.3c8.9-14.7,22.8-26.5,43.4-26.5
		c13.9,0,28.7,8.1,39.8,16.2c6.6,5.1,12.5,10.3,19.1,16.2V627.2h74.3V1168.3L2074.5,1168.3z M2000.1,854c0-11.8-11.1-24.3-22.1-24.3
		c-11.1,0-19.9,10.3-19.9,24.3v226c0,14,8.8,24.3,19.9,24.3c11,0,22.1-10.3,22.1-24.3V854L2000.1,854z M2320.3,1024v46.4
		c-2.2,39-13.9,66.2-40.5,87.6c-13.3,11.1-31.7,16.2-55.9,16.2c-47.8,0-72.1-26.5-83.9-53c-6.6-15.4-11-33.1-11.8-53V865.8
		c2.2-39,14.7-67.7,41.2-89.8c12.5-11.1,30.9-16.2,55.2-16.2c47.8,0,72.1,26.5,83.9,52.3c6.6,15.5,11,32.4,11.7,51.6v117.1h-122.9
		v87.6c0.8,15.4,5.1,26.5,11.8,34.6c3.7,3.7,8.8,5.9,15.5,5.9c14,0,20.6-8.8,23.5-19.9c2.2-5.9,2.9-12.5,2.9-20.6v-44.2L2320.3,1024
		L2320.3,1024L2320.3,1024z M2197.4,922.4h53.7v-56.7c0-15.4-2.9-26.5-10.3-35.3c-3.7-3.7-9.6-5.9-16.2-5.9
		c-14,0-19.9,9.6-23.6,20.6c-2.2,5.9-2.9,12.5-3.7,20.6V922.4L2197.4,922.4z M2518.6,842.2c-6.6-2.2-13.9-2.9-20.6-2.9
		c-11.7,0-25.8,1.5-37.5,12.5c-14,11.8-16.2,24.3-16.2,36.8v279.8h-74.3V765.6h74.3v44.9c0.8-5.1,5.9-17.7,17.7-29.5
		c11.8-11.1,29.5-21.4,56.7-21.4V842.2L2518.6,842.2z M2551,1168.3V627.2h62.6c73.6,0,113.4,14.7,134.7,55.9
		c20.6,41.2,23.6,109,23.6,215c0,106-3,173-23.6,214.2c-21.3,41.2-61.1,55.9-134.7,55.9L2551,1168.3L2551,1168.3z M2630.6,1088.8
		c27.2,0,42.7-3,50.8-29.5c3.7-12.5,6.7-31.7,7.4-57.4c0.8-25.8,0.8-60.4,0.8-104.6c0-44.2,0-78.7-0.8-104.6
		c-0.7-25-3.7-44.2-7.4-57.4c-8.1-25.8-23.5-28.7-50.8-28.7V1088.8L2630.6,1088.8z M3008.2,1070.4c-2.2,39-13.9,66.2-39.7,87.6
		c-13.3,11.1-31.7,16.2-55.9,16.2c-47.9,0-71.4-26.5-83.2-53c-6.6-15.4-11.1-33.1-11.7-53V865.8c2.2-39,14-67.7,39.7-89.8
		c12.5-11.1,30.9-16.2,55.2-16.2c47.8,0,72.1,26.5,83.9,52.3c6.6,15.5,11,32.4,11.7,51.6V1070.4L3008.2,1070.4L3008.2,1070.4z
		 M2938.3,865.7c0.8-15.4-2.2-26.5-9.6-35.3c-3.7-3.7-9.6-5.9-16.2-5.9c-14,0-19.9,9.6-22.8,20.6c-2.2,5.9-2.9,12.5-2.2,20.6v202.5
		c-0.7,15.4,3,26.5,9.6,34.6c3.7,3.7,8.8,5.9,15.5,5.9c14,0,20.6-8.8,23.5-19.9c2.2-5.9,3-12.5,2.2-20.6L2938.3,865.7L2938.3,865.7
		L2938.3,865.7z M3057.8,627.2h74.3v74.3h-74.3C3057.8,701.5,3057.8,627.2,3057.8,627.2z M3374.8,1070.4c-2.2,39-14,66.2-39.7,87.6
		c-13.3,11.1-31.7,16.2-55.9,16.2c-47.9,0-71.4-26.5-83.2-53c-6.6-15.4-11-33.1-11.7-53V865.8c2.2-39,13.9-67.7,39.7-89.8
		c12.5-11.1,30.9-16.2,55.2-16.2c47.8,0,72.1,26.5,83.9,52.3c6.6,15.5,11,32.4,11.7,51.6L3374.8,1070.4L3374.8,1070.4L3374.8,1070.4
		z M3304.9,865.7c0.8-15.4-2.2-26.5-9.6-35.3c-3.7-3.7-9.6-5.9-16.2-5.9c-14,0-19.9,9.6-22.8,20.6c-2.2,5.9-2.9,12.5-2.2,20.6v202.5
		c-0.7,15.4,3,26.5,9.6,34.6c3.7,3.7,8.8,5.9,15.5,5.9c14,0,20.6-8.8,23.6-19.9c2.2-5.9,3-12.5,2.2-20.6L3304.9,865.7L3304.9,865.7
		L3304.9,865.7z M3132.1,765.6v412.8c0,20.6,0,53-10.3,79.5c-10.3,27.2-33.2,48.6-75,48.6c-11.7,0-23.1,0.4-32.4,0v-64.9
		c5.1,0.3,37,1.7,41.8-28.1c0.8-6,1.4-12.6,1.4-19.2c0-6.6,0-12.6,0-16.9V765.6H3132.1z"/>
	<g id="_1_">
		<circle id="circle13_1_" class="st1" cx="899.5" cy="899.6" r="398.4"/>
		<path id="path15_1_" class="st0" d="M901.2,493.3c224.4,0,406.3,181.9,406.3,406.3s-181.9,406.3-406.3,406.3
			S494.9,1124,494.9,899.6S676.8,493.3,901.2,493.3z M897.1,514.3c-1.9,0-3.8,0-5.7,0.1c-210.1,3-379.6,174.4-379.6,385.2
			c0,211,169.9,382.6,380.4,385.2c-104.1-2.6-187.7-87.9-187.7-192.6c0-106.3,86.3-192.7,192.7-192.7s192.7-86.3,192.7-192.7
			S1003.4,514.3,897.1,514.3L897.1,514.3z"/>
		<path id="path17_1_" class="st0" d="M836.2,744.9V601.2c0-6.3,2.3-11.7,6.9-16.3c4.6-4.6,10-6.9,16.3-6.9h74.9
			c6.2,0,11.6,2.3,16.1,6.9c4.5,4.6,6.8,10,6.8,16.3v143.6c0,6.4-2.3,11.8-6.8,16.3c-4.5,4.5-10,6.8-16.4,6.8h-74.6
			c-6.5,0-12-2.2-16.5-6.8C838.5,756.7,836.3,751.2,836.2,744.9L836.2,744.9L836.2,744.9z M933.4,744V602.4h-73.2V744H933.4
			L933.4,744z"/>
		<path id="path19_1_" class="st2" d="M863.6,1179h36.9v-141.6h-36.3c-3.3,0-6.2-1.2-8.5-3.5s-3.5-5.2-3.5-8.5
			c0-3.3,1.2-6.2,3.5-8.5s5.2-3.5,8.5-3.5h60.3v165.6h24v-50c0-3.2,1.2-6,3.5-8.4c2.3-2.4,5.2-3.6,8.5-3.6c3.3,0,6.2,1.2,8.5,3.5
			c2.3,2.4,3.5,5.2,3.5,8.5v62c0,3.3-1.2,6.2-3.5,8.6c-2.3,2.3-5.1,3.5-8.5,3.5h-96.9c-3.3,0-6.2-1.2-8.5-3.6
			c-2.4-2.4-3.5-5.3-3.5-8.7c0-3.2,1.2-6,3.5-8.3C857.5,1180.2,860.3,1179.1,863.6,1179L863.6,1179L863.6,1179z"/>
	</g>
</g>
<g>
	<polygon class="st3" points="4180.3,765.6 4019.2,765.6 4019.2,765.6 4019.2,846.2 4019.2,1168.3 4099.7,1168.3 4099.7,846.2 
		4180.3,846.2 	"/>
	
		<rect x="4180.3" y="846.2" transform="matrix(-1 -1.224647e-16 1.224647e-16 -1 8441.0439 1933.9299)" class="st4" width="80.5" height="241.6"/>
	<polygon class="st5" points="3616.5,1087.8 3616.5,765.6 3535.9,765.6 3535.9,1087.8 3535.9,1168.3 3616.5,1168.3 3777.5,1168.3 
		3777.5,1087.8 	"/>
	
		<rect x="3858.1" y="765.6" transform="matrix(-1 -1.224647e-16 1.224647e-16 -1 7796.7192 1772.856)" class="st6" width="80.5" height="241.6"/>
	
		<rect x="3858.1" y="1087.8" transform="matrix(-1 -1.224647e-16 1.224647e-16 -1 7796.7192 2256.0994)" class="st6" width="80.5" height="80.5"/>
	<polygon class="st7" points="4341.3,765.6 4341.3,1087.8 4260.8,1087.8 4260.8,1168.3 4341.3,1168.3 4421.9,1168.3 4421.9,1087.8 
		4421.9,765.6 	"/>
	<polygon class="st8" points="4905.1,765.6 4824.6,765.6 4502.4,765.6 4502.4,846.2 4824.6,846.2 4824.6,926.7 4905.1,926.7 
		4905.1,765.6 	"/>
	
		<rect x="4663.5" y="846.2" transform="matrix(6.123234e-17 -1 1 6.123234e-17 3736.8018 5670.7261)" class="st8" width="80.5" height="241.6"/>
	<polygon class="st8" points="4583,1087.8 4583,1007.2 4502.4,1007.2 4502.4,1087.8 4502.4,1168.3 4583,1168.3 4905.1,1168.3 
		4905.1,1087.8 	"/>
</g>
</svg>
